<svg xmlns="http://www.w3.org/2000/svg" viewBox="0 0 1015.78 275.27"><defs><style>.cls-1{fill:#e2e0e1;}.cls-2{fill:#fff;}.cls-3{fill:#e0e0e0;}.cls-4{fill:#12cd8e;}.cls-5{fill:#208b62;}.cls-6{fill:#10ce8e;}.cls-7{fill:#08b176;}.cls-8{fill:#935205;}.cls-9{fill:#b06616;}.cls-10{fill:#ffc;}.cls-11{fill:#ffd6b4;}.cls-12{fill:#fee1cd;}.cls-13{fill:#fff3ea;}.cls-14{fill:#ffc89b;}.cls-15{fill:#ffc99b;}</style></defs><g id="Calque_2" data-name="Calque 2"><g id="assiette"><path class="cls-1" d="M896,230.64C692,287.18,448.17,288.91,168.85,242c-180-40.52-248.52-113-42-178.52,145.39-35.2,384-55.5,570.32-33.57C995.13,69.41,1131.85,144.46,896,230.64Z"/><path class="cls-2" d="M896,215.64C692,272.18,448.17,273.91,168.85,227c-180-40.52-248.52-113-42-178.52,145.39-35.2,384-55.5,570.32-33.57C995.13,54.41,1131.85,129.46,896,215.64Z"/></g><g id="Calque_25" data-name="Calque 25"><path class="cls-3" d="M153.73,199.33c18.36,17.46,40,28.93,83.46,0,1.29,28.42,26.36,30.51,66.16,16.31,103.66,1,177.08-6.1,173-33.68,114.32,29.17,213.94,44.54,238.5-10.5,123-1.5,230.67,6.45,189-60l-829.5,6C34.38,161.41,82.76,190,153.73,199.33Z"/></g><g id="pickles"><g id="Calque_16" data-name="Calque 16"><path class="cls-4" d="M655.9,64l113-59c37.39-18.33,68.76,18,46.5,46.5-24.14,25.72-63.24,51.17-109.5,76.5l-50-64"/><path class="cls-5" d="M717.85,87.46c57.79-28.59,106.81-55.12,102-69,7.66,15.11,4.3,28-8,41.14l-80.66,62.9Z"/></g><path class="cls-6" d="M867.85,147.46c60.82-.15,64-70.67,0-66.67L667.59,77.66v69.8Z"/><path class="cls-7" d="M796.23,120.46c70.53-2.12,115.43-.8,118.12-9,1.82,23.64-16.49,34.27-60.56,39.16H655.9V120.46Z"/></g><g id="potatoes"><path class="cls-8" d="M682.3,186.6c-63,18-267.82,6.22-316.69-84-45.89-84.7,305.69,81,305.69,81"/><path class="cls-9" d="M607.3,190.6S310.09,167.16,349.72,43.31,740.47,103.8,740.47,103.8C742.49,101.84,772.1,202.92,607.3,190.6Z"/><path class="cls-10" d="M395,3.41c-4.19,0-55.88,17.77-42,52.3,4.82,12,24.59,23,61.1,34.94C546.85,134,644.35,167,695.35,150.46s64.5-63,10.5-84S477.85-13,395,3.41Z"/></g><g id="Calque_17" data-name="Calque 17"><g id="Calque_22" data-name="Calque 22"><path class="cls-11" d="M212.35,171.46l84,21,78.2-12.91-7.8-50.19L276.85,20c-6.39-3-10.88,2.66-12,15l-78-12c-2.38,9.82-39.87,50.1-43.5,54Z"/></g><g id="Calque_21" data-name="Calque 21"><path class="cls-12" d="M149.35,71,220,168.2c5.43,9-130.51,32.33-153.15-34.24C49.51,78,149.13,82,149.35,71Z"/></g><g id="Calque_19" data-name="Calque 19"><path class="cls-12" d="M186.85,23l82.5,99,33-24,29.58,13.91L251.35,17C224.56-.22,203.4,3,186.85,23Z"/></g><path class="cls-12" d="M297.85,15.46l106.31,116.1h-39L270.85,20C278.26,15.41,287.29,14,297.85,15.46Z"/><path class="cls-13" d="M64.93,128c-6.82,30.22,25,49.75,90.42,60,19.88,27.49,48.05,27.94,84,3,2.79,22.63,17.26,32.1,52.5,18.13,5.86-3.9,30.78-6,75-6.13,19.46-10,37.71-21.54,43.5-49.5-.66-34-32.11-44.68-52.5-24-15.06,17.29-12,45-30,49.5-10.77,2.13-14,1.2-16.5,0,8.49-4.61,14.29-5.63,24-25.5,1.46-10.11,4.24-27,0-34.5-12.06-27.22-28.79-41.87-61.5-13.5-22.5,22.5-35.22,47.52-79.5,69-10.75,7.46-39.16,5.39-76.5-1.5C89.77,166.85,74.73,149.64,64.93,128Z"/><g id="Calque_18" data-name="Calque 18"><path class="cls-14" d="M267.85,182c67.5,12,72,3,79.5-7.5,10.5-13.5,3-36,34.5-45,11.42-.92,21.27,4.43,19.5,24-4,19-9.7,33.5-40.5,39-10.5,3-30-1.5-60,1.5-9.3-.08-15,12-33,13.07-8.8-.34-16.56-2.35-18-14.57C249,183.3,256.21,180.82,267.85,182Z"/><path class="cls-15" d="M168.85,188c21.23,16.35,34.5,16.5,69-9,16.5-12,31.5-4.5,49.5-3,21,3,41-22.1,40.5-36,0-37.5-25.5-40.5-42-28.5C248.35,141.46,233.35,189.46,168.85,188Z"/></g></g></g></svg>