<svg xmlns="http://www.w3.org/2000/svg" viewBox="0 0 282.9 141.42"><defs><style>.cls-1{fill:#fcc02e;}.cls-2{fill:#fef076;}.cls-3{fill:#fff177;}</style></defs><g id="Calque_2" data-name="Calque 2"><g id="downcheese"><path class="cls-1" d="M223.56,3.28l-138,39c-28.36,27.83-3,45-15,54-38.42,17-50.25,27.18-50.25,27.18C-40.34,140.39,46.23,152.4,130.2,126c6.56-2.06,11.35-38,9.74-59.38-1.21-16.08,97.22-23.5,124.12-18.34C310.56,25.78,260.91-11.23,223.56,3.28Z"/><path class="cls-2" d="M252.12,2.39s-58.56-3.88-103.56,0-63,42.89-63,42.89l52.5,15s1.5-21.73,47.25-22.12S306.18,30,252.12,2.39Z"/><g id="Calque_13" data-name="Calque 13"><path class="cls-3" d="M118.56,115.78s-36-18-49.5-15-48.75,15-48.75,15S-7.44,162.28,118.56,115.78Z"/></g></g></g></svg>