<svg xmlns="http://www.w3.org/2000/svg" viewBox="0 0 1199.17 998.8"><defs><style>.cls-1{fill:#e2e0e1;}.cls-2{fill:#fff;}.cls-3{fill:#e0e0e0;}.cls-4{fill:#12cd8e;}.cls-5{fill:#208b62;}.cls-6{fill:#10ce8e;}.cls-7{fill:#08b176;}.cls-8{fill:#935205;}.cls-9{fill:#b06616;}.cls-10{fill:#ffc;}.cls-11{fill:#ffd6b4;}.cls-12{fill:#fee1cd;}.cls-13{fill:#fff3ea;}.cls-14{fill:#ffc89b;}.cls-15{fill:#ffc99b;}.cls-16{fill:#efbb2b;}.cls-17{fill:#fef076;}.cls-18{fill:#fff177;}.cls-19{fill:#d37218;}.cls-20{fill:#ffa74e;}.cls-21{fill:#bdbdbd;}.cls-22{fill:#9e9e9e;}.cls-23{fill:#edf0ed;}.cls-24{fill:#fcc02e;}</style></defs><g id="Calque_2" data-name="Calque 2"><g id="assiette"><path class="cls-1" d="M1079.37,954.17c-203.95,56.54-447.81,58.28-727.13,11.34-180-40.51-248.51-113-42-178.51,145.39-35.21,384-55.5,570.32-33.57C1178.52,792.94,1315.24,868,1079.37,954.17Z"/><path class="cls-2" d="M1079.37,939.17c-203.95,56.54-447.81,58.28-727.13,11.34-180-40.51-248.51-113-42-178.51,145.39-35.21,384-55.5,570.32-33.57C1178.52,777.94,1315.24,853,1079.37,939.17Z"/></g><g id="Calque_25" data-name="Calque 25"><path class="cls-3" d="M337.12,922.87c18.36,17.46,40,28.92,83.46,0,1.29,28.41,26.36,30.51,66.16,16.3,103.66,1,177.08-6.1,173-33.67C774.06,934.66,873.68,950,898.24,895c123-1.5,230.67,6.44,189-60l-829.5,6C217.77,885,266.15,913.55,337.12,922.87Z"/></g><g id="pickles"><g id="Calque_16" data-name="Calque 16"><path class="cls-4" d="M839.29,787.53l113-59c37.4-18.34,68.76,18,46.5,46.5-24.13,25.71-63.24,51.17-109.5,76.5l-50-64"/><path class="cls-5" d="M901.24,811c57.79-28.6,106.81-55.13,102-69,7.66,15.1,4.31,28-8,41.14L914.56,846Z"/></g><path class="cls-6" d="M1051.24,871c60.82-.15,64-70.68,0-66.67L851,801.2V871Z"/><path class="cls-7" d="M979.62,844c70.53-2.12,115.43-.8,118.12-9,1.83,23.63-16.49,34.27-60.56,39.16H839.29V844Z"/></g><g id="potatoes"><path class="cls-8" d="M865.69,910.13c-63,18-267.82,6.22-316.69-84-45.89-84.71,305.69,81,305.69,81"/><path class="cls-9" d="M790.69,914.13S493.48,890.7,533.11,766.85s390.75,60.48,390.75,60.48C925.88,825.38,955.49,926.45,790.69,914.13Z"/><path class="cls-10" d="M578.43,727c-4.19,0-55.88,17.76-42,52.29,4.82,12,24.59,23,61.1,35C730.24,857.5,827.74,890.5,878.74,874s64.5-63,10.5-84S661.24,710.5,578.43,727Z"/></g><g id="Calque_17" data-name="Calque 17"><g id="Calque_22" data-name="Calque 22"><path class="cls-11" d="M395.74,895l84,21,78.2-12.91-7.8-50.19-89.9-109.4c-6.39-3-10.88,2.66-12,15l-78-12c-2.38,9.81-39.87,50.09-43.5,54Z"/></g><g id="Calque_21" data-name="Calque 21"><path class="cls-12" d="M332.74,794.5l70.65,97.23c5.43,9-130.51,32.33-153.15-34.23C232.91,801.55,332.52,805.57,332.74,794.5Z"/></g><g id="Calque_19" data-name="Calque 19"><path class="cls-12" d="M370.24,746.5l82.5,99,33-24,29.58,13.9-80.58-94.9C408,723.31,386.8,726.54,370.24,746.5Z"/></g><path class="cls-12" d="M481.24,739,587.55,855.1h-39l-94.3-111.6C461.65,739,470.68,737.5,481.24,739Z"/><path class="cls-13" d="M248.32,851.5c-6.81,30.21,25,49.74,90.42,60,19.88,27.49,48.05,27.93,84,3,2.79,22.63,17.26,32.09,52.5,18.13,5.87-3.91,30.79-6,75-6.13,19.46-10,37.71-21.54,43.5-49.5-.66-34-32.11-44.68-52.5-24-15,17.28-12,45-30,49.5-10.77,2.13-14,1.2-16.5,0,8.49-4.62,14.29-5.63,24-25.5,1.46-10.12,4.24-27,0-34.5-12.06-27.23-28.79-41.88-61.5-13.5-22.5,22.5-35.22,47.52-79.5,69-10.75,7.45-39.16,5.38-76.5-1.5C273.16,890.39,258.12,873.18,248.32,851.5Z"/><g id="Calque_18" data-name="Calque 18"><path class="cls-14" d="M451.24,905.5c67.5,12,72,3,79.5-7.5,10.5-13.5,3-36,34.5-45,11.42-.92,21.28,4.42,19.5,24-4,19-9.7,33.49-40.5,39-10.5,3-30-1.5-60,1.5-9.3-.08-15,12-33,13.07-8.8-.34-16.56-2.35-18-14.57C432.35,906.83,439.6,904.36,451.24,905.5Z"/><path class="cls-15" d="M352.24,911.5c21.23,16.35,34.5,16.5,69-9,16.5-12,31.5-4.5,49.5-3,21,3,41-22.1,40.5-36,0-37.5-25.5-40.5-42-28.5C431.74,865,416.74,913,352.24,911.5Z"/></g></g><g id="downcheese"><path class="cls-16" d="M742.24,787l-138,39c-28.36,27.83-3,45-15,54C550.82,897,539,907.18,539,907.18c-60.65,16.92,25.92,28.93,109.89,2.53,6.56-2.06,11.35-38,9.74-59.37-1.21-16.09,97.22-23.51,124.12-18.34C829.24,809.5,779.59,772.48,742.24,787Z"/><path class="cls-17" d="M770.8,786.11s-58.56-3.89-103.56,0-63,42.89-63,42.89l52.5,15s1.5-21.74,47.25-22.12S824.86,813.72,770.8,786.11Z"/><g id="Calque_13" data-name="Calque 13"><path class="cls-18" d="M637.24,899.5s-36-18-49.5-15-48.75,15-48.75,15S511.24,946,637.24,899.5Z"/></g></g><g id="pelle-sup"><g id="Calque_8" data-name="Calque 8"><path class="cls-19" d="M245.74,164.5l-183-159c-34.5-16.5-73.5,15-60,54l184,162.72C229.24,242.5,266.74,200.5,245.74,164.5Z"/><path class="cls-20" d="M245.74,164.5l-183-159c-25.5-12-48-4.5-60,24l175.5,156C196.24,145,221.74,148,245.74,164.5Z"/></g><g id="Calque_4" data-name="Calque 4"><path class="cls-21" d="M178.73,386.07l10,61.93S518.56,600.15,531.4,600.57s51.48-19,51.48-19L282,227.39l-57.3-53.89c-23.53-3.05-27.9,8.47-27,24l63,60s19.84,49.95-31.33,63.22S178.73,386.07,178.73,386.07Z"/></g><g id="Calque_3" data-name="Calque 3"><path class="cls-21" d="M191,342.25l249-106.5s10.5-9,22.5,4.5,192,220.5,192,220.5,9,15-7.5,25.5-94.5,45-94.5,45-19.5,7.5-45-7.5S191,363.37,191,363.37,171.49,349.75,191,342.25Z"/></g><path class="cls-22" d="M458,243.25c-2.95,22.1-25.5,79.5-24,84s-169.5,79.5-169.5,79.5l256.5,132h32.42L647,492.25l-49.5,81-42,24c-7.34,2.66-14.4,4-21,3l-1.5-33L182.32,398.46c-6.43-2.09-2.84-28.82,0-30,5.61-2.37-10.84-16.56-10.83-21.69l276-124.5S461,220.75,458,243.25Z"/><path class="cls-23" d="M675.49,451.75s-189-216-204-229.5-39.15-8.46-39.15-8.46S360.49,246.25,347,252.25s-54-15-54-15l-60-54c-11.06-3-19.52.06-25.5,9,0,0,51,46.5,61.5,58.5s1.5,33,1.5,33S218.07,309.7,179,325.54c-42.63,17.27-11.37,51.2,0,55.71,0,0,315,160.5,340.71,169.5s31.29,0,31.29,0,109.5-58.5,124.5-68.37S675.49,451.75,675.49,451.75ZM647,486.25c-16.5,10.5-94.5,45-94.5,45s-19.5,7.5-45-7.5S191,363.38,191,363.38s-19.5-13.63,0-21.13l249-106.5s10.5-9,22.5,4.5,192,220.5,192,220.5S663.49,475.75,647,486.25Z"/></g><g id="upcheese"><path class="cls-24" d="M241.24,388s174-85.5,186-90,24.23-1.5,27.11,0S689.74,509.5,689.74,509.5c7.94,19.8,14.75,38.8,12,51l3,42c-8.7,22.68-19.35,22.9-31.5,6-17.22-21.76-16.5,6-16.5,28.5h-55.5c0-61.87-22.32-104.79-42-100.5-25.5,0-28.5-1.5-49.5-12S241.24,388,241.24,388Z"/><path class="cls-18" d="M620.08,637h36.66c0-25.5,6.7-31.68,16.5-28.5-.33-10.17,2.38-20,13.5-16.5,5.8,7.93,11.77,11.8,18.06,8.14,0,0-1.56-6.64-.06-45.64s-25.5-58.5-25.5-58.5-216-165-223.52-169.5-25.48,0-25.48,0l-150,81,210,108s49.45,6.13,76.45,7.63C593,523.28,619.69,559.13,620.08,637ZM371.74,425.5c0-28.5,25.5-24,28.5-10.5C388.24,407.5,379.24,409,371.74,425.5Zm28.5-8.57c-2.81-3.52,16.5-15.43,22,1.83C414.41,410.48,407.2,411.68,400.24,416.93Zm78.61-22.8C476.74,373,455.74,376,445.24,391,448.24,359.5,491.74,370,478.85,394.13Zm71.39,49.37c-3-13.5-31.5-18-37.5,0C508.24,422.5,554.74,421,550.24,443.5Z"/></g><g id="coulant"><path class="cls-24" d="M601.24,838.25l18-13.3v13c21,13.5-18,34.5-18,.25"/><path class="cls-18" d="M656.74,838.25h0l-37.5-4.75c0,16.5,13.5,16.5,13.5,4.5,0,25.5,24,21,24,.25"/></g><g id="longcheese"><polygon class="cls-24" points="601.24 637 601.24 838.25 632.52 838.25 629.31 637 601.24 637"/><polyline class="cls-18" points="656.74 637 656.74 838.25 619.24 838 620.08 637 656.74 637"/></g></g></svg>