<svg xmlns="http://www.w3.org/2000/svg" viewBox="0 0 704.8 637"><defs><style>.cls-1{fill:#d37218;}.cls-2{fill:#ffa74e;}.cls-3{fill:#bdbdbd;}.cls-4{fill:#9e9e9e;}.cls-5{fill:#edf0ed;}.cls-6{fill:#fcc02e;}.cls-7{fill:#fff177;}</style></defs><g id="Calque_2" data-name="Calque 2"><g id="pelle-sup"><g id="Calque_8" data-name="Calque 8"><path class="cls-1" d="M245.74,164.5l-183-159c-34.5-16.5-73.5,15-60,54l184,162.72C229.24,242.5,266.74,200.5,245.74,164.5Z"/><path class="cls-2" d="M245.74,164.5l-183-159c-25.5-12-48-4.5-60,24l175.5,156C196.24,145,221.74,148,245.74,164.5Z"/></g><g id="Calque_4" data-name="Calque 4"><path class="cls-3" d="M178.73,386.07l10,61.93S518.56,600.15,531.4,600.57s51.48-19,51.48-19L282,227.39l-57.3-53.89c-23.53-3.05-27.9,8.47-27,24l63,60s19.84,49.95-31.33,63.22S178.73,386.07,178.73,386.07Z"/></g><g id="Calque_3" data-name="Calque 3"><path class="cls-3" d="M191,342.25l249-106.5s10.5-9,22.5,4.5,192,220.5,192,220.5,9,15-7.5,25.5-94.5,45-94.5,45-19.5,7.5-45-7.5S191,363.37,191,363.37,171.49,349.75,191,342.25Z"/></g><path class="cls-4" d="M458,243.25c-2.95,22.1-25.5,79.5-24,84s-169.5,79.5-169.5,79.5l256.5,132h32.42L647,492.25l-49.5,81-42,24c-7.34,2.66-14.4,4-21,3l-1.5-33L182.32,398.46c-6.43-2.09-2.84-28.82,0-30,5.61-2.37-10.84-16.56-10.83-21.69l276-124.5S461,220.75,458,243.25Z"/><path class="cls-5" d="M675.49,451.75s-189-216-204-229.5-39.15-8.46-39.15-8.46S360.49,246.25,347,252.25s-54-15-54-15l-60-54c-11.06-3-19.52.06-25.5,9,0,0,51,46.5,61.5,58.5s1.5,33,1.5,33S218.07,309.7,179,325.54c-42.63,17.27-11.37,51.2,0,55.71,0,0,315,160.5,340.71,169.5s31.29,0,31.29,0,109.5-58.5,124.5-68.37S675.49,451.75,675.49,451.75ZM647,486.25c-16.5,10.5-94.5,45-94.5,45s-19.5,7.5-45-7.5S191,363.38,191,363.38s-19.5-13.63,0-21.13l249-106.5s10.5-9,22.5,4.5,192,220.5,192,220.5S663.49,475.75,647,486.25Z"/></g><g id="upcheese"><path class="cls-6" d="M241.24,388s174-85.5,186-90,24.23-1.5,27.11,0S689.74,509.5,689.74,509.5c7.94,19.8,14.75,38.8,12,51l3,42c-8.7,22.68-19.35,22.9-31.5,6-17.22-21.76-16.5,6-16.5,28.5h-55.5c0-61.87-22.32-104.79-42-100.5-25.5,0-28.5-1.5-49.5-12S241.24,388,241.24,388Z"/><path class="cls-7" d="M620.08,637h36.66c0-25.5,6.7-31.68,16.5-28.5-.33-10.17,2.38-20,13.5-16.5,5.8,7.93,11.77,11.8,18.06,8.14,0,0-1.56-6.64-.06-45.64s-25.5-58.5-25.5-58.5-216-165-223.52-169.5-25.48,0-25.48,0l-150,81,210,108s49.45,6.13,76.45,7.63C593,523.28,619.69,559.13,620.08,637ZM371.74,425.5c0-28.5,25.5-24,28.5-10.5C388.24,407.5,379.24,409,371.74,425.5Zm28.5-8.57c-2.81-3.52,16.5-15.43,22,1.83C414.41,410.48,407.2,411.68,400.24,416.93Zm78.61-22.8C476.74,373,455.74,376,445.24,391,448.24,359.5,491.74,370,478.85,394.13Zm71.39,49.37c-3-13.5-31.5-18-37.5,0C508.24,422.5,554.74,421,550.24,443.5Z"/></g></g></svg>